<svg xmlns="http://www.w3.org/2000/svg" xmlns:xlink="http://www.w3.org/1999/xlink" id="圖層_1" x="0" y="0" version="1.1" viewBox="0 0 512 512" style="enable-background:new 0 0 512 512" xml:space="preserve"><style type="text/css">.st0{fill:url(#SVGID_1_)}.st1{fill:#32e0c4}.st2{fill:url(#SVGID_2_)}</style><linearGradient id="SVGID_1_" x1="165.211" x2="568.049" y1="36.325" y2="416.187" gradientUnits="userSpaceOnUse"><stop offset="0" style="stop-color:#333"/><stop offset=".277" style="stop-color:#2f2f2f"/><stop offset=".561" style="stop-color:#232323"/><stop offset=".848" style="stop-color:#0e0e0e"/><stop offset="1" style="stop-color:#000"/></linearGradient><path d="M490,374H160c-12.2,0-22-9.8-22-22V22c0-12.2,9.8-22,22-22h330c12.2,0,22,9.8,22,22v330	C512,364.2,502.2,374,490,374z" class="st0"/><g><path d="M342.7,448H166.3C110.4,448,65,402.6,65,346.7V170.3C65,114.4,110.4,69,166.3,69h176.3 c56,0,101.3,45.4,101.3,101.3v176.3C444,402.6,398.6,448,342.7,448z" class="st1"/></g><g><linearGradient id="SVGID_2_" x1="34.042" x2="404.765" y1="176.491" y2="536.491" gradientUnits="userSpaceOnUse"><stop offset="0" style="stop-color:#333"/><stop offset=".277" style="stop-color:#2f2f2f"/><stop offset=".561" style="stop-color:#232323"/><stop offset=".848" style="stop-color:#0e0e0e"/><stop offset="1" style="stop-color:#000"/></linearGradient><path d="M352.1,512H21.9C9.8,512,0,502.2,0,490.1V159.9C0,147.8,9.8,138,21.9,138H352c12.2,0,22,9.8,22,22v330.1 C374,502.2,364.2,512,352.1,512z" class="st2"/></g></svg>