<svg xmlns="http://www.w3.org/2000/svg" width="90" height="59" fill="none" viewBox="0 0 90 59"><path stroke="#FFD5A5" stroke-width="3" d="M43.8162 43.2337C40.5087 59.5349 31.175 54.6166 19 46.5C12.5612 42.2075 8.93491 57.9483 2 40.3987"/><ellipse cx="62.953" cy="29.059" fill="#FFA949" rx="26.224" ry="29.059"/><path stroke="#000" stroke-opacity=".42" stroke-width=".5" d="M88.9263 29.0587C88.9263 44.994 77.274 57.8674 62.9526 57.8674C48.6313 57.8674 36.9789 44.994 36.9789 29.0587C36.9789 13.1233 48.6313 0.25 62.9526 0.25C77.274 0.25 88.9263 13.1233 88.9263 29.0587Z"/><path stroke="#FCFCFC" stroke-linecap="round" stroke-width="2" d="M75.7098 22.681C76.4631 29.0327 69.3515 47.6083 54.4476 48.1949"/><path stroke="#FCFCFC" stroke-linecap="round" stroke-width="2" d="M63.6617 37.7637C56.5741 37.7637 47.1295 30.3737 43.1077 21.9712"/><path stroke="#FCFCFC" stroke-linecap="round" stroke-width="2" d="M55.1564 42.525C51.6506 41.9631 47.0118 39.486 44.5251 34.7289"/><path stroke="#FCFCFC" stroke-linecap="round" stroke-width="2" d="M79.721 32.7811C79.9641 37.3421 70.6518 50.2585 59.4088 51.7387"/><path stroke="#FCFCFC" stroke-linecap="round" stroke-width="2" d="M83.0253 38.3469C80.1332 43.5246 78.3712 48.541 69.1041 53.0812"/></svg>