<svg xmlns="http://www.w3.org/2000/svg" xmlns:xlink="http://www.w3.org/1999/xlink" id="圖層_1" x="0" y="0" version="1.1" viewBox="0 0 650.1 593.1" style="enable-background:new 0 0 650.1 593.1" xml:space="preserve"><style type="text/css">.st0{fill:none}.st1{opacity:.5}.st2,.st3{fill-rule:evenodd;clip-rule:evenodd;fill:#cec3b2}.st3{fill:#fff}</style><g transform="matrix(1,0,0,1,0,-4826)"><g id="大貓頭" transform="matrix(1,0,0,1,11274,-0.75015)"><rect width="1178.4" height="1080" x="-11538.2" y="4583.3" class="st0"/><g><g class="st1"><g><path d="M3609.3,2849c0.3-7.5,2-17.7,4.1-19.4c2.6-2.2,9.6,3.6,13.9,7.7c4.6-1.5,9.6-2.4,14.9-2.4 c7.3-0.1,14.2,1.5,20.2,4.3c4.3-3.9,10.1-8.2,12.4-6.3c2.2,1.8,4,13.2,4.1,20.8c2.5,4.3,3.9,9.1,4,14.1 c0.1,18.3-17.9,33.2-40.3,33.4c-22.4,0.2-40.6-14.6-40.7-32.8C3601.8,2861.1,3604.6,2854.4,3609.3,2849z" class="st2" transform="matrix(52.4306,-0.822203,1.13531,58.2651,-303407,86527.3) matrix(0.153093,0,0,0.142172,5048.91,-1725.38)"/></g><g><path d="M32.5-59.1c-0.1,0-0.2,0.1-0.2,0.2c0,0.1,0.1,0.2,0.2,0.2c0.1,0,0.2-0.1,0.2-0.2 C32.7-59,32.7-59.1,32.5-59.1" class="st3" transform="matrix(52.4306,-0.822203,1.13531,58.2651,-303407,86527.3) matrix(-2.28378,1.00779,1.08602,2.11927,5747.47,-1226.71)"/></g><g><path d="M16.7-50.7c-0.1,0-0.2,0.1-0.2,0.2c0,0.1,0.1,0.2,0.2,0.2c0.1,0,0.2-0.1,0.2-0.2 C16.9-50.6,16.8-50.7,16.7-50.7" class="st3" transform="matrix(52.4306,-0.822203,1.13531,58.2651,-303407,86527.3) matrix(-2.28378,1.00779,1.08602,2.11927,5697.49,-1228.73)"/></g><g><path d="M-19.2-51.8c0-0.1,0.4-0.2,0.4-0.2s-0.2-0.4-0.1-0.4s0.3,0.3,0.3,0.3s0.5,0,0.5,0.1c0,0.1-0.4,0.2-0.4,0.2 s0.2,0.4,0.1,0.4c-0.1,0-0.3-0.4-0.3-0.4S-19.1-51.7-19.2-51.8" class="st3" transform="matrix(52.4306,-0.822203,1.13531,58.2651,-303407,86527.3) matrix(2.28378,-1.00779,1.08602,2.11927,5705.72,-1227.53)"/></g></g></g></g></g></svg>